<?xml version="1.0" encoding="ISO-8859-1" standalone="no"?>
<svg width="34" height="30" viewBox="0 0 34 30" fill="none" xmlns="http://www.w3.org/2000/svg">
<path d="M33.7107 26.7439L23.3789 0.469922C23.2781 0.181641 23.0045 0 22.7139 0C22.5375 0 22.4227 0.0603516 22.0406 0.193945C21.6621 0.326367 21.4652 0.676758 21.6732 1.2709C20.7088 1.83867 18.2074 2.68242 17.2494 2.81895C17.1715 2.59746 17.134 2.43105 16.8744 2.27813V1.875C16.8744 0.839648 16.0348 0 14.9994 0H9.37441C9.0252 0 8.71699 0.121289 8.43691 0.287109C8.15742 0.121289 7.84922 0 7.5 0H1.875C0.839648 0 0 0.839648 0 1.875V28.125C0 29.1604 0.839648 30 1.875 30H7.5C7.84922 30 8.15742 29.8787 8.4375 29.7129C8.71758 29.8793 9.02578 30 9.375 30H15C16.0354 30 16.875 29.1604 16.875 28.125V6.96562L25.7479 29.5301C25.8492 29.8184 26.1229 30 26.4129 30C26.5887 30 26.7035 29.9396 27.0861 29.8061C27.4635 29.6742 27.6621 29.3238 27.4535 28.7291C28.418 28.1613 30.9193 27.3176 31.8773 27.1811C32.0912 27.7904 32.4709 27.9223 32.8371 27.7939L33.2795 27.6393C33.6445 27.5109 33.8385 27.1078 33.7107 26.7439ZM7.5 28.125H1.875V24.375H7.5V28.125ZM7.5 22.5H1.875V7.5H7.5V22.5ZM7.5 5.625H1.875V1.875H7.5V5.625ZM15 28.125H9.375V24.375H15V28.125ZM15 22.5H9.375V7.5H15V22.5ZM15 5.625H9.375V1.875H15V5.625ZM26.9033 27.1605L17.8002 4.3875C19.2779 4.10977 21.5508 3.19629 22.224 2.83945L31.3272 25.6119C29.8488 25.8902 27.5766 26.8031 26.9033 27.1605Z" fill="#FFB802"/>
</svg>
